<svg xmlns="http://www.w3.org/2000/svg" viewBox="0 0 48 48" width="48" height="48">
  <circle cx="24" cy="24" r="20" fill="#F05A28"/>
  <path fill="#FFF" d="M24 8C15.2 8 8 15.2 8 24s7.2 16 16 16 16-7.2 16-16S32.8 8 24 8zm0 2c7.7 0 14 6.3 14 14s-6.3 14-14 14S10 31.7 10 24 16.3 10 24 10z"/>
  <path fill="#FFF" d="M24 14c-5.5 0-10 4.5-10 10s4.5 10 10 10c2.8 0 5.3-1.1 7.1-2.9l-1.4-1.4c-1.5 1.5-3.6 2.3-5.7 2.3-4.4 0-8-3.6-8-8s3.6-8 8-8c2.1 0 4.2.8 5.7 2.3l1.4-1.4C29.3 15.1 26.8 14 24 14z"/>
  <circle cx="24" cy="24" r="3" fill="#FFF"/>
</svg>
