<svg xmlns="http://www.w3.org/2000/svg" viewBox="0 0 48 48" width="48" height="48">
  <path fill="#F0D6B7" d="M24.5 14c-1.4 0-2.5 1.1-2.5 2.5v3c0 1.4 1.1 2.5 2.5 2.5s2.5-1.1 2.5-2.5v-3C27 15.1 25.9 14 24.5 14z"/>
  <path fill="#D32F2F" d="M31 26c0-3.9-3.1-7-7-7s-7 3.1-7 7v8h2v-8c0-2.8 2.2-5 5-5s5 2.2 5 5v8h2V26z"/>
  <path fill="#6D4C41" d="M22 34H26V40H22z"/>
  <path fill="#37474F" d="M20 40H28V42H20z"/>
  <circle cx="21" cy="17" r="1" fill="#263238"/>
  <circle cx="27" cy="17" r="1" fill="#263238"/>
  <path fill="#D32F2F" d="M18 24c-1.1 0-2 .9-2 2v2c0 1.1.9 2 2 2s2-.9 2-2v-2C20 24.9 19.1 24 18 24zM30 24c-1.1 0-2 .9-2 2v2c0 1.1.9 2 2 2s2-.9 2-2v-2C32 24.9 31.1 24 30 24z"/>
</svg>
