<svg xmlns="http://www.w3.org/2000/svg" viewBox="0 0 48 48" width="48" height="48">
  <path fill="#ECEFF1" d="M24 4c-7.73 0-14 6.27-14 14 0 10.5 14 26 14 26s14-15.5 14-26c0-7.73-6.27-14-14-14z"/>
  <path fill="#263238" d="M24 6c-6.63 0-12 5.37-12 12 0 9.09 12 23 12 23s12-13.91 12-23c0-6.63-5.37-12-12-12z"/>
  <ellipse cx="18" cy="16" rx="2" ry="3" fill="#FFF"/>
  <ellipse cx="30" cy="16" rx="2" ry="3" fill="#FFF"/>
  <circle cx="18" cy="16" r="1" fill="#263238"/>
  <circle cx="30" cy="16" r="1" fill="#263238"/>
  <path fill="#FBC02D" d="M20 22c0 2.21 1.79 4 4 4s4-1.79 4-4H20z"/>
  <path fill="#FFA000" d="M22 24h4v2h-4z"/>
</svg>
